inDegrees=yes
name=IK_Results.mot
DataType=double
version=3
OpenSimVersion=4.4-2022-08-12-dcf8e2cb1
endheader
time	TH_x	TH_y	TH_z	TH_transx	TH_transy	TH_transz	SC_y	SC_z	SC_x	AC_y	AC_z	AC_x	GH_y	GH_z	GH_yy	EL_x	PS_y
6.119999999999914	15.87003913297156	-111.3720610422808	0.3530254317380456	0	0	0	-42.402242946133	10.36170508112311	20.35575109051228	50.5192510209358	-7.605629705102116	7.291495229010387	46.41953123893623	-3.15218063687036	-33.79220892559834	6.692080514023378	89.86619836904489
6.129999999999914	19.76557621580965	-105.9811473030282	5.648226804709228	0	0	0	-41.39761970124094	11.2387797631619	20.55664184770279	51.14312260435002	-7.710860641763488	7.001537933485731	47.50758988890608	-2.585581033719196	-31.93485411171267	11.33886918327891	89.5279903122056
6.139999999999914	29.84881622416822	-101.5976873428808	17.04613202371896	0	0	0	-40.22286135297855	10.74690875281141	21.06975670075223	51.38104800843539	-8.396999699050067	8.007559638588736	48.22403320267456	-1.443638127183951	-30.45627615464401	9.268312579546757	89.66935295306921
6.149999999999913	36.67263076338513	-103.8799526222432	21.81218648911643	0	0	0	-39.38681867600522	9.072963526705601	22.90970635560539	50.86294919727717	-8.714947812452419	10.67078034417863	48.20284788972216	1.054701005843797	-30.41561190830897	5.764232802898922	89.95157495734826
6.159999999999913	23.54346763295043	-105.712371068962	7.232877110923038	0	0	0	-38.90961623100099	9.896506431733615	22.48058569621488	51.00451967710677	-9.48532393292796	10.07227269516556	46.8694649825866	0.8285935008742636	-31.41963056549033	7.418600561760585	89.81600106287381
6.169999999999913	25.56858482417557	-110.3109842281822	7.587519311128566	0	0	0	-37.2041250867189	7.443311095380201	24.11023036401037	50.57107660404476	-11.20578635653524	13.52603180978947	45.92461147272727	3.559322343415848	-32.22353221900337	7.517294375824513	89.79345520520005
6.179999999999913	25.36246768228143	-108.9656876641712	7.674819414703956	0	0	0	-32.56622914107886	8.637155378907375	27.25023502611928	54.20309772850426	-9.776183231209496	14.51592336917837	51.02379573510249	6.376480027489754	-27.12066331622357	5.129204233887648	89.96671897573813
6.189999999999912	23.46588911949517	-106.205421147668	6.679150514890839	0	0	0	-32.8348419095696	7.959863854352556	26.39646044293605	52.91744291924853	-11.61439463231066	14.50580569530906	49.38712088128997	6.638290195210718	-28.83704453217439	4.984611572862994	89.99136009266726
6.199999999999912	38.0448037440509	-100.6264749702683	20.51013680007734	0	0	0	-31.40462331770987	7.983647544561539	27.6459698556746	52.8523764402118	-12.05625820322464	15.03503077897961	50.30769645787633	9.358631648308654	-27.63409449276697	1.040000236911822	90.68390125047772
6.209999999999912	41.18165302160257	-101.1013508714102	23.66422622184225	0	0	0	-28.46891842678623	8.344931197101603	29.123207086531	54.65710722119083	-12.14364118086664	14.97915994364005	52.87928365124712	11.35201621903173	-25.35245130062498	1.047890383671901	90.63628276380746
6.219999999999912	60.62835527614927	-96.07397158201121	44.31604657368062	0	0	0	-27.61665764612864	8.510971460496458	28.9887082395975	53.13386699086534	-14.58442205139244	14.35603886378955	51.51371393202978	14.14806066633722	-28.48203350090514	1.127049670483771	90.39960530244927
6.229999999999912	76.91777446268497	-94.25561753523257	63.25227918809468	0	0	0	-25.30607385406037	9.407080772219704	29.19063397211689	54.7417295197167	-15.37529451282913	13.28976471964147	54.34651132907019	18.79855503964974	-26.45086663244917	5.326005310637647	89.97512141166365
6.239999999999911	88.88212489525843	-92.72263376223286	75.73283084342333	0	0	0	-30.55777162647555	12.98855776155355	16.85342937166848	57.10594443808596	-12.10755902731887	6.443504813339211	69.22393632915102	39.99169361252034	-41.88497192316191	4.030036075427254	90.06754915245114
6.249999999999911	88.574390980836	-91.8445213455133	76.21515889279669	0	0	0	-30.59189167671815	13.39950673901361	19.04881206412226	56.92942253611189	-9.998189131469001	6.541376937090956	70.07506961456835	39.8727611652761	-37.7143381370023	1.070867736743705	90.51142416196721
